<svg width="22" height="22" viewBox="0 0 22 22" fill="none" xmlns="http://www.w3.org/2000/svg">
<g id="arrow_back_ios">
<mask id="mask0_82_106" style="mask-type:alpha" maskUnits="userSpaceOnUse" x="0" y="0" width="22" height="22">
<rect id="Bounding box" width="22" height="22" transform="matrix(1 8.74228e-08 8.74228e-08 -1 0 22)" fill="#D9D9D9"/>
</mask>
<g mask="url(#mask0_82_106)">
<path id="arrow_back_ios_2" d="M7.80686 10.9945L14.2542 4.59913C14.4735 4.3816 14.5795 4.12781 14.5722 3.83777C14.5649 3.54773 14.4516 3.29395 14.2323 3.07642C14.013 2.85889 13.7571 2.75012 13.4648 2.75012C13.1724 2.75012 12.9165 2.85889 12.6972 3.07642L5.94282 9.75459C5.76738 9.92861 5.6358 10.1244 5.54808 10.3419C5.46036 10.5594 5.4165 10.777 5.4165 10.9945C5.4165 11.212 5.46036 11.4296 5.54808 11.6471C5.6358 11.8646 5.76738 12.0604 5.94282 12.2344L12.6972 18.9344C12.9165 19.1519 13.176 19.257 13.4757 19.2498C13.7754 19.2425 14.0349 19.1301 14.2542 18.9126C14.4735 18.6951 14.5832 18.4413 14.5832 18.1512C14.5832 17.8612 14.4735 17.6074 14.2542 17.3899L7.80686 10.9945Z" fill="white"/>
</g>
</g>
</svg>
