<svg width="22" height="22" viewBox="0 0 22 22" fill="none" xmlns="http://www.w3.org/2000/svg">
<mask id="mask0_68_439" style="mask-type:alpha" maskUnits="userSpaceOnUse" x="0" y="0" width="22" height="22">
<rect x="22" y="22" width="22" height="22" transform="rotate(180 22 22)" fill="#D9D9D9"/>
</mask>
<g mask="url(#mask0_68_439)">
<path d="M14.1931 10.9945L7.74578 4.59913C7.52648 4.3816 7.42048 4.12781 7.42779 3.83777C7.4351 3.54773 7.54841 3.29395 7.76771 3.07642C7.987 2.85889 8.24285 2.75012 8.53525 2.75012C8.82765 2.75012 9.0835 2.85889 9.30279 3.07642L16.0572 9.75459C16.2326 9.92861 16.3642 10.1244 16.4519 10.3419C16.5396 10.5594 16.5835 10.777 16.5835 10.9945C16.5835 11.212 16.5396 11.4296 16.4519 11.6471C16.3642 11.8646 16.2326 12.0604 16.0572 12.2344L9.30279 18.9344C9.0835 19.1519 8.82399 19.257 8.52429 19.2498C8.22458 19.2425 7.96508 19.1301 7.74578 18.9126C7.52648 18.6951 7.41683 18.4413 7.41683 18.1512C7.41683 17.8612 7.52648 17.6074 7.74578 17.3899L14.1931 10.9945Z" fill="white"/>
</g>
</svg>
