<svg width="18" height="18" viewBox="0 0 18 18" fill="none" xmlns="http://www.w3.org/2000/svg">
<g id="arrow_back_ios">
<mask id="mask0_144_6583" style="mask-type:alpha" maskUnits="userSpaceOnUse" x="0" y="0" width="18" height="18">
<rect id="Bounding box" y="18" width="18" height="18" transform="rotate(-90 0 18)" fill="#D9D9D9"/>
</mask>
<g mask="url(#mask0_144_6583)">
<path id="arrow_back_ios_2" d="M9.00459 10.7941L14.2372 5.51895C14.4152 5.33952 14.6228 5.2528 14.8601 5.25878C15.0974 5.26476 15.3051 5.35746 15.483 5.53689C15.661 5.71631 15.75 5.92564 15.75 6.16488C15.75 6.40411 15.661 6.61344 15.483 6.79287L10.0191 12.3192C9.87669 12.4627 9.71651 12.5704 9.53853 12.6421C9.36055 12.7139 9.18257 12.7498 9.00459 12.7498C8.82661 12.7498 8.64864 12.7139 8.47066 12.6421C8.29268 12.5704 8.1325 12.4627 7.99011 12.3192L2.50836 6.79287C2.33038 6.61344 2.24436 6.40112 2.25029 6.15591C2.25622 5.91069 2.34818 5.69837 2.52616 5.51895C2.70413 5.33952 2.91178 5.24981 3.14908 5.24981C3.38639 5.24981 3.59403 5.33952 3.77201 5.51895L9.00459 10.7941Z" fill="#0C0E12"/>
</g>
</g>
</svg>
