<svg width="20" height="20" viewBox="0 0 20 20" fill="none" xmlns="http://www.w3.org/2000/svg">
<g id="attach_money">
<mask id="mask0_144_3795" style="mask-type:alpha" maskUnits="userSpaceOnUse" x="0" y="0" width="20" height="20">
<rect id="Bounding box" width="20" height="20" fill="#D9D9D9"/>
</mask>
<g mask="url(#mask0_144_3795)">
<path id="attach_money_2" d="M10.0213 17.5C9.78518 17.5 9.58727 17.4201 9.42755 17.2604C9.26782 17.1007 9.18796 16.9028 9.18796 16.6667V15.7083C8.56296 15.5694 8.01435 15.3264 7.54213 14.9792C7.06991 14.6319 6.68796 14.1458 6.3963 13.5208C6.29907 13.3264 6.2956 13.1215 6.38588 12.9062C6.47616 12.691 6.63935 12.5347 6.87546 12.4375C7.06991 12.3542 7.2713 12.3576 7.47963 12.4479C7.68796 12.5382 7.84768 12.6875 7.9588 12.8958C8.19491 13.3125 8.49352 13.6285 8.85463 13.8438C9.21574 14.059 9.66018 14.1667 10.188 14.1667C10.7574 14.1667 11.24 14.0382 11.6359 13.7812C12.0317 13.5243 12.2296 13.125 12.2296 12.5833C12.2296 12.0972 12.0769 11.7118 11.7713 11.4271C11.4657 11.1424 10.7574 10.8194 9.6463 10.4583C8.45185 10.0833 7.63241 9.63542 7.18796 9.11458C6.74352 8.59375 6.5213 7.95833 6.5213 7.20833C6.5213 6.30556 6.81296 5.60417 7.3963 5.10417C7.97963 4.60417 8.57685 4.31944 9.18796 4.25V3.33333C9.18796 3.09722 9.26782 2.89931 9.42755 2.73958C9.58727 2.57986 9.78518 2.5 10.0213 2.5C10.2574 2.5 10.4553 2.57986 10.615 2.73958C10.7748 2.89931 10.8546 3.09722 10.8546 3.33333V4.25C11.3824 4.33333 11.8407 4.50347 12.2296 4.76042C12.6185 5.01736 12.938 5.33333 13.188 5.70833C13.313 5.88889 13.3373 6.09028 13.2609 6.3125C13.1845 6.53472 13.0282 6.69444 12.7921 6.79167C12.5977 6.875 12.3963 6.87847 12.188 6.80208C11.9796 6.72569 11.7852 6.59028 11.6046 6.39583C11.4241 6.20139 11.2123 6.05208 10.9692 5.94792C10.7262 5.84375 10.4241 5.79167 10.063 5.79167C9.45185 5.79167 8.98657 5.92708 8.66713 6.19792C8.34768 6.46875 8.18796 6.80556 8.18796 7.20833C8.18796 7.66667 8.3963 8.02778 8.81296 8.29167C9.22963 8.55556 9.95185 8.83333 10.9796 9.125C11.938 9.40278 12.6637 9.84375 13.1567 10.4479C13.6498 11.0521 13.8963 11.75 13.8963 12.5417C13.8963 13.5278 13.6046 14.2778 13.0213 14.7917C12.438 15.3056 11.7157 15.625 10.8546 15.75V16.6667C10.8546 16.9028 10.7748 17.1007 10.615 17.2604C10.4553 17.4201 10.2574 17.5 10.0213 17.5Z" fill="#E43E59"/>
</g>
</g>
</svg>
