<svg width="20" height="20" viewBox="0 0 20 20" fill="none" xmlns="http://www.w3.org/2000/svg">
<g id="confirmation_number">
<mask id="mask0_85_149" style="mask-type:alpha" maskUnits="userSpaceOnUse" x="0" y="0" width="20" height="20">
<rect id="Bounding box" width="20" height="20" fill="#E43E59"/>
</mask>
<g mask="url(#mask0_85_149)">
<path id="confirmation_number_2" d="M3.33366 16.6667C2.87533 16.6667 2.48296 16.5035 2.15658 16.1771C1.83019 15.8507 1.66699 15.4583 1.66699 15V12.1875C1.66699 12.0347 1.7156 11.9028 1.81283 11.7917C1.91005 11.6806 2.03505 11.6111 2.18783 11.5833C2.52116 11.4722 2.79546 11.2708 3.01074 10.9792C3.22602 10.6875 3.33366 10.3611 3.33366 10C3.33366 9.63889 3.22602 9.3125 3.01074 9.02084C2.79546 8.72917 2.52116 8.52778 2.18783 8.41667C2.03505 8.38889 1.91005 8.31945 1.81283 8.20834C1.7156 8.09722 1.66699 7.96528 1.66699 7.8125V5C1.66699 4.54167 1.83019 4.14931 2.15658 3.82292C2.48296 3.49653 2.87533 3.33334 3.33366 3.33334H16.667C17.1253 3.33334 17.5177 3.49653 17.8441 3.82292C18.1705 4.14931 18.3337 4.54167 18.3337 5V7.8125C18.3337 7.96528 18.285 8.09722 18.1878 8.20834C18.0906 8.31945 17.9656 8.38889 17.8128 8.41667C17.4795 8.52778 17.2052 8.72917 16.9899 9.02084C16.7746 9.3125 16.667 9.63889 16.667 10C16.667 10.3611 16.7746 10.6875 16.9899 10.9792C17.2052 11.2708 17.4795 11.4722 17.8128 11.5833C17.9656 11.6111 18.0906 11.6806 18.1878 11.7917C18.285 11.9028 18.3337 12.0347 18.3337 12.1875V15C18.3337 15.4583 18.1705 15.8507 17.8441 16.1771C17.5177 16.5035 17.1253 16.6667 16.667 16.6667H3.33366ZM3.33366 15H16.667V12.875C16.1531 12.5694 15.7469 12.1632 15.4482 11.6563C15.1496 11.1493 15.0003 10.5972 15.0003 10C15.0003 9.40278 15.1496 8.8507 15.4482 8.34375C15.7469 7.83681 16.1531 7.43056 16.667 7.125V5H3.33366V7.125C3.84755 7.43056 4.2538 7.83681 4.55241 8.34375C4.85102 8.8507 5.00033 9.40278 5.00033 10C5.00033 10.5972 4.85102 11.1493 4.55241 11.6563C4.2538 12.1632 3.84755 12.5694 3.33366 12.875V15ZM10.0003 14.1667C10.2364 14.1667 10.4344 14.0868 10.5941 13.9271C10.7538 13.7674 10.8337 13.5694 10.8337 13.3333C10.8337 13.0972 10.7538 12.8993 10.5941 12.7396C10.4344 12.5799 10.2364 12.5 10.0003 12.5C9.76421 12.5 9.5663 12.5799 9.40658 12.7396C9.24685 12.8993 9.16699 13.0972 9.16699 13.3333C9.16699 13.5694 9.24685 13.7674 9.40658 13.9271C9.5663 14.0868 9.76421 14.1667 10.0003 14.1667ZM10.0003 10.8333C10.2364 10.8333 10.4344 10.7535 10.5941 10.5938C10.7538 10.434 10.8337 10.2361 10.8337 10C10.8337 9.76389 10.7538 9.56598 10.5941 9.40625C10.4344 9.24653 10.2364 9.16667 10.0003 9.16667C9.76421 9.16667 9.5663 9.24653 9.40658 9.40625C9.24685 9.56598 9.16699 9.76389 9.16699 10C9.16699 10.2361 9.24685 10.434 9.40658 10.5938C9.5663 10.7535 9.76421 10.8333 10.0003 10.8333ZM10.0003 7.5C10.2364 7.5 10.4344 7.42014 10.5941 7.26042C10.7538 7.1007 10.8337 6.90278 10.8337 6.66667C10.8337 6.43056 10.7538 6.23264 10.5941 6.07292C10.4344 5.9132 10.2364 5.83334 10.0003 5.83334C9.76421 5.83334 9.5663 5.9132 9.40658 6.07292C9.24685 6.23264 9.16699 6.43056 9.16699 6.66667C9.16699 6.90278 9.24685 7.1007 9.40658 7.26042C9.5663 7.42014 9.76421 7.5 10.0003 7.5Z" fill="#E43E59"/>
</g>
</g>
</svg>
