<svg width="56" height="56" viewBox="0 0 56 56" fill="none" xmlns="http://www.w3.org/2000/svg">
<g id="fi_2961957" clip-path="url(#clip0_68_495)">
<path id="Vector" d="M39.8125 3.5C37.5977 3.50258 35.407 3.95887 33.3754 4.84074C31.3438 5.72262 29.5144 7.01136 28 8.6275C25.7808 6.25897 22.9007 4.61228 19.7338 3.90121C16.5669 3.19013 13.2594 3.44751 10.2406 4.63994C7.22177 5.83236 4.63115 7.90475 2.80502 10.5881C0.978897 13.2714 0.00159801 16.4417 0 19.6875C0 35.805 25.9963 51.625 27.125 52.2463C27.3972 52.4098 27.7087 52.4962 28.0262 52.4962C28.3438 52.4962 28.6553 52.4098 28.9275 52.2463C30.0038 51.625 56 35.805 56 19.6875C55.9954 15.3957 54.2884 11.2811 51.2537 8.24633C48.2189 5.21158 44.1043 3.50463 39.8125 3.5ZM28 48.685C23.4762 45.7975 3.5 32.305 3.5 19.6875C3.50224 16.9925 4.36262 14.3681 5.95643 12.1949C7.55024 10.0216 9.79469 8.41233 12.3645 7.60025C14.9343 6.78818 17.6959 6.8155 20.2491 7.67825C22.8023 8.54101 25.0145 10.1944 26.565 12.3988C26.7265 12.628 26.9408 12.8152 27.1898 12.9443C27.4388 13.0735 27.7151 13.1409 27.9956 13.1409C28.2761 13.1409 28.5525 13.0735 28.8015 12.9443C29.0504 12.8152 29.2647 12.628 29.4263 12.3988C30.9755 10.1906 33.1881 8.53365 35.743 7.66846C38.2979 6.80328 41.0621 6.77488 43.6342 7.58739C46.2063 8.3999 48.4526 10.011 50.0468 12.1869C51.6411 14.3627 52.5004 16.9901 52.5 19.6875C52.5 32.2963 32.5238 45.7888 28 48.685Z" fill="white"/>
</g>
<defs>
<clipPath id="clip0_68_495">
<rect width="56" height="56" fill="white"/>
</clipPath>
</defs>
</svg>
