<svg width="20" height="20" viewBox="0 0 20 20" fill="none" xmlns="http://www.w3.org/2000/svg">
<g id="language">
<mask id="mask0_144_6595" style="mask-type:alpha" maskUnits="userSpaceOnUse" x="0" y="0" width="20" height="20">
<rect id="Bounding box" width="20" height="20" fill="#D9D9D9"/>
</mask>
<g mask="url(#mask0_144_6595)">
<path id="language_2" d="M10 18.3333C8.86113 18.3333 7.78474 18.1146 6.77085 17.6771C5.75696 17.2396 4.87155 16.6424 4.1146 15.8854C3.35766 15.1285 2.76044 14.2431 2.32294 13.2292C1.88544 12.2153 1.66669 11.1389 1.66669 10C1.66669 8.84722 1.88544 7.76736 2.32294 6.76042C2.76044 5.75347 3.35766 4.87153 4.1146 4.11458C4.87155 3.35764 5.75696 2.76042 6.77085 2.32292C7.78474 1.88542 8.86113 1.66667 10 1.66667C11.1528 1.66667 12.2327 1.88542 13.2396 2.32292C14.2465 2.76042 15.1285 3.35764 15.8854 4.11458C16.6424 4.87153 17.2396 5.75347 17.6771 6.76042C18.1146 7.76736 18.3334 8.84722 18.3334 10C18.3334 11.1389 18.1146 12.2153 17.6771 13.2292C17.2396 14.2431 16.6424 15.1285 15.8854 15.8854C15.1285 16.6424 14.2465 17.2396 13.2396 17.6771C12.2327 18.1146 11.1528 18.3333 10 18.3333ZM10 16.625C10.3611 16.125 10.6736 15.6042 10.9375 15.0625C11.2014 14.5208 11.4167 13.9444 11.5834 13.3333H8.41669C8.58335 13.9444 8.79863 14.5208 9.06252 15.0625C9.32641 15.6042 9.63891 16.125 10 16.625ZM7.83335 16.2917C7.58335 15.8333 7.3646 15.3576 7.1771 14.8646C6.9896 14.3715 6.83335 13.8611 6.70835 13.3333H4.25002C4.6528 14.0278 5.15627 14.6319 5.76044 15.1458C6.3646 15.6597 7.05558 16.0417 7.83335 16.2917ZM12.1667 16.2917C12.9445 16.0417 13.6354 15.6597 14.2396 15.1458C14.8438 14.6319 15.3472 14.0278 15.75 13.3333H13.2917C13.1667 13.8611 13.0104 14.3715 12.8229 14.8646C12.6354 15.3576 12.4167 15.8333 12.1667 16.2917ZM3.54169 11.6667H6.37502C6.33335 11.3889 6.3021 11.1146 6.28127 10.8437C6.26044 10.5729 6.25002 10.2917 6.25002 10C6.25002 9.70833 6.26044 9.42708 6.28127 9.15625C6.3021 8.88542 6.33335 8.61111 6.37502 8.33333H3.54169C3.47224 8.61111 3.42016 8.88542 3.38544 9.15625C3.35071 9.42708 3.33335 9.70833 3.33335 10C3.33335 10.2917 3.35071 10.5729 3.38544 10.8437C3.42016 11.1146 3.47224 11.3889 3.54169 11.6667ZM8.04169 11.6667H11.9584C12 11.3889 12.0313 11.1146 12.0521 10.8437C12.0729 10.5729 12.0834 10.2917 12.0834 10C12.0834 9.70833 12.0729 9.42708 12.0521 9.15625C12.0313 8.88542 12 8.61111 11.9584 8.33333H8.04169C8.00002 8.61111 7.96877 8.88542 7.94794 9.15625C7.9271 9.42708 7.91669 9.70833 7.91669 10C7.91669 10.2917 7.9271 10.5729 7.94794 10.8437C7.96877 11.1146 8.00002 11.3889 8.04169 11.6667ZM13.625 11.6667H16.4584C16.5278 11.3889 16.5799 11.1146 16.6146 10.8437C16.6493 10.5729 16.6667 10.2917 16.6667 10C16.6667 9.70833 16.6493 9.42708 16.6146 9.15625C16.5799 8.88542 16.5278 8.61111 16.4584 8.33333H13.625C13.6667 8.61111 13.6979 8.88542 13.7188 9.15625C13.7396 9.42708 13.75 9.70833 13.75 10C13.75 10.2917 13.7396 10.5729 13.7188 10.8437C13.6979 11.1146 13.6667 11.3889 13.625 11.6667ZM13.2917 6.66667H15.75C15.3472 5.97222 14.8438 5.36805 14.2396 4.85417C13.6354 4.34028 12.9445 3.95833 12.1667 3.70833C12.4167 4.16667 12.6354 4.64236 12.8229 5.13542C13.0104 5.62847 13.1667 6.13889 13.2917 6.66667ZM8.41669 6.66667H11.5834C11.4167 6.05555 11.2014 5.47917 10.9375 4.9375C10.6736 4.39583 10.3611 3.875 10 3.375C9.63891 3.875 9.32641 4.39583 9.06252 4.9375C8.79863 5.47917 8.58335 6.05555 8.41669 6.66667ZM4.25002 6.66667H6.70835C6.83335 6.13889 6.9896 5.62847 7.1771 5.13542C7.3646 4.64236 7.58335 4.16667 7.83335 3.70833C7.05558 3.95833 6.3646 4.34028 5.76044 4.85417C5.15627 5.36805 4.6528 5.97222 4.25002 6.66667Z" fill="#E43E59"/>
</g>
</g>
</svg>
