<svg width="20" height="20" viewBox="0 0 20 20" fill="none" xmlns="http://www.w3.org/2000/svg">
<g id="location_on">
<mask id="mask0_144_6587" style="mask-type:alpha" maskUnits="userSpaceOnUse" x="0" y="0" width="20" height="20">
<rect id="Bounding box" width="20" height="20" fill="#D9D9D9"/>
</mask>
<g mask="url(#mask0_144_6587)">
<path id="location_on_2" d="M9.99998 16.125C11.6944 14.5694 12.9514 13.1562 13.7708 11.8854C14.5903 10.6146 15 9.48611 15 8.5C15 6.98611 14.5173 5.74653 13.5521 4.78125C12.5868 3.81597 11.4028 3.33333 9.99998 3.33333C8.5972 3.33333 7.41317 3.81597 6.4479 4.78125C5.48262 5.74653 4.99998 6.98611 4.99998 8.5C4.99998 9.48611 5.4097 10.6146 6.22915 11.8854C7.04859 13.1562 8.30553 14.5694 9.99998 16.125ZM9.99998 17.7708C9.80553 17.7708 9.61109 17.7361 9.41665 17.6667C9.2222 17.5972 9.04859 17.4931 8.89581 17.3542C7.99304 16.5208 7.19442 15.7083 6.49998 14.9167C5.80554 14.125 5.22567 13.3576 4.7604 12.6146C4.29512 11.8715 3.94095 11.1562 3.6979 10.4688C3.45484 9.78125 3.33331 9.125 3.33331 8.5C3.33331 6.41667 4.00345 4.75694 5.34373 3.52083C6.68401 2.28472 8.23609 1.66667 9.99998 1.66667C11.7639 1.66667 13.316 2.28472 14.6562 3.52083C15.9965 4.75694 16.6666 6.41667 16.6666 8.5C16.6666 9.125 16.5451 9.78125 16.3021 10.4688C16.059 11.1562 15.7048 11.8715 15.2396 12.6146C14.7743 13.3576 14.1944 14.125 13.5 14.9167C12.8055 15.7083 12.0069 16.5208 11.1041 17.3542C10.9514 17.4931 10.7778 17.5972 10.5833 17.6667C10.3889 17.7361 10.1944 17.7708 9.99998 17.7708ZM9.99998 10C10.4583 10 10.8507 9.83681 11.1771 9.51042C11.5035 9.18403 11.6666 8.79167 11.6666 8.33333C11.6666 7.875 11.5035 7.48264 11.1771 7.15625C10.8507 6.82986 10.4583 6.66667 9.99998 6.66667C9.54165 6.66667 9.14929 6.82986 8.8229 7.15625C8.49651 7.48264 8.33331 7.875 8.33331 8.33333C8.33331 8.79167 8.49651 9.18403 8.8229 9.51042C9.14929 9.83681 9.54165 10 9.99998 10Z" fill="#E43E59"/>
</g>
</g>
</svg>
