<svg width="20" height="20" viewBox="0 0 20 20" fill="none" xmlns="http://www.w3.org/2000/svg">
<g id="location_on">
<mask id="mask0_85_140" style="mask-type:alpha" maskUnits="userSpaceOnUse" x="0" y="0" width="20" height="20">
<rect id="Bounding box" width="20" height="20" fill="#E43E59"/>
</mask>
<g mask="url(#mask0_85_140)">
<path id="location_on_2" d="M10.0011 16.125C11.6956 14.5694 12.9525 13.1562 13.772 11.8854C14.5914 10.6146 15.0011 9.48611 15.0011 8.5C15.0011 6.98611 14.5185 5.74653 13.5532 4.78125C12.5879 3.81597 11.4039 3.33333 10.0011 3.33333C8.59836 3.33333 7.41433 3.81597 6.44906 4.78125C5.48378 5.74653 5.00114 6.98611 5.00114 8.5C5.00114 9.48611 5.41086 10.6146 6.23031 11.8854C7.04975 13.1562 8.30669 14.5694 10.0011 16.125ZM10.0011 17.7708C9.80669 17.7708 9.61225 17.7361 9.41781 17.6667C9.22336 17.5972 9.04975 17.4931 8.89697 17.3542C7.99419 16.5208 7.19558 15.7083 6.50114 14.9167C5.80669 14.125 5.22683 13.3576 4.76156 12.6146C4.29628 11.8715 3.94211 11.1562 3.69906 10.4688C3.456 9.78125 3.33447 9.125 3.33447 8.5C3.33447 6.41667 4.00461 4.75694 5.34489 3.52083C6.68517 2.28472 8.23725 1.66667 10.0011 1.66667C11.765 1.66667 13.3171 2.28472 14.6574 3.52083C15.9977 4.75694 16.6678 6.41667 16.6678 8.5C16.6678 9.125 16.5463 9.78125 16.3032 10.4688C16.0602 11.1562 15.706 11.8715 15.2407 12.6146C14.7754 13.3576 14.1956 14.125 13.5011 14.9167C12.8067 15.7083 12.0081 16.5208 11.1053 17.3542C10.9525 17.4931 10.7789 17.5972 10.5845 17.6667C10.39 17.7361 10.1956 17.7708 10.0011 17.7708ZM10.0011 10C10.4595 10 10.8518 9.83681 11.1782 9.51042C11.5046 9.18403 11.6678 8.79167 11.6678 8.33333C11.6678 7.875 11.5046 7.48264 11.1782 7.15625C10.8518 6.82986 10.4595 6.66667 10.0011 6.66667C9.5428 6.66667 9.15044 6.82986 8.82406 7.15625C8.49767 7.48264 8.33447 7.875 8.33447 8.33333C8.33447 8.79167 8.49767 9.18403 8.82406 9.51042C9.15044 9.83681 9.5428 10 10.0011 10Z" fill="#E43E59"/>
</g>
</g>
</svg>
