<svg width="20" height="20" viewBox="0 0 20 20" fill="none" xmlns="http://www.w3.org/2000/svg">
<g id="location_on">
<mask id="mask0_144_6068" style="mask-type:alpha" maskUnits="userSpaceOnUse" x="0" y="0" width="20" height="20">
<rect id="Bounding box" width="20" height="20" fill="#D9D9D9"/>
</mask>
<g mask="url(#mask0_144_6068)">
<path id="location_on_2" d="M10 16.125C11.6945 14.5694 12.9514 13.1562 13.7709 11.8854C14.5903 10.6146 15 9.4861 15 8.49999C15 6.9861 14.5174 5.74652 13.5521 4.78124C12.5868 3.81596 11.4028 3.33332 10 3.33332C8.59726 3.33332 7.41324 3.81596 6.44796 4.78124C5.48268 5.74652 5.00004 6.9861 5.00004 8.49999C5.00004 9.4861 5.40976 10.6146 6.22921 11.8854C7.04865 13.1562 8.3056 14.5694 10 16.125ZM10 17.7708C9.8056 17.7708 9.61115 17.7361 9.41671 17.6667C9.22226 17.5972 9.04865 17.493 8.89587 17.3542C7.9931 16.5208 7.19448 15.7083 6.50004 14.9167C5.8056 14.125 5.22574 13.3576 4.76046 12.6146C4.29518 11.8715 3.94101 11.1562 3.69796 10.4687C3.4549 9.78124 3.33337 9.12499 3.33337 8.49999C3.33337 6.41666 4.00351 4.75693 5.34379 3.52082C6.68407 2.28471 8.23615 1.66666 10 1.66666C11.7639 1.66666 13.316 2.28471 14.6563 3.52082C15.9966 4.75693 16.6667 6.41666 16.6667 8.49999C16.6667 9.12499 16.5452 9.78124 16.3021 10.4687C16.0591 11.1562 15.7049 11.8715 15.2396 12.6146C14.7743 13.3576 14.1945 14.125 13.5 14.9167C12.8056 15.7083 12.007 16.5208 11.1042 17.3542C10.9514 17.493 10.7778 17.5972 10.5834 17.6667C10.3889 17.7361 10.1945 17.7708 10 17.7708ZM10 9.99999C10.4584 9.99999 10.8507 9.8368 11.1771 9.51041C11.5035 9.18402 11.6667 8.79166 11.6667 8.33332C11.6667 7.87499 11.5035 7.48263 11.1771 7.15624C10.8507 6.82985 10.4584 6.66666 10 6.66666C9.54171 6.66666 9.14935 6.82985 8.82296 7.15624C8.49657 7.48263 8.33337 7.87499 8.33337 8.33332C8.33337 8.79166 8.49657 9.18402 8.82296 9.51041C9.14935 9.8368 9.54171 9.99999 10 9.99999Z" fill="white"/>
</g>
</g>
</svg>
