<svg width="201" height="56" viewBox="0 0 201 56" fill="none" xmlns="http://www.w3.org/2000/svg">
<mask id="mask0_144_6460" style="mask-type:luminance" maskUnits="userSpaceOnUse" x="49" y="14" width="15" height="28">
<path d="M49.7949 14.3526H63.8175V41.5644H49.7949V14.3526Z" fill="white"/>
</mask>
<g mask="url(#mask0_144_6460)">
<path d="M54.0403 41.4876V18.5001H49.8181V14.3853H63.8027V18.5001H59.6486V41.4876H54.0403Z" fill="#0C0E12"/>
</g>
<path d="M66.3352 14.3853H71.8751V41.4876H66.3352V14.3853Z" fill="#0C0E12"/>
<path d="M83.6621 41.8558C81.6357 41.8558 80.0317 41.476 78.8481 40.7183C77.6664 39.9603 76.839 38.9057 76.3663 37.5556C75.8933 36.2059 75.6577 34.6403 75.6577 32.8546V23.1185C75.6577 21.244 75.8933 19.634 76.3663 18.2843C76.839 16.9345 77.6664 15.8913 78.8481 15.1566C80.0297 14.42 81.6357 14.0515 83.6621 14.0515C85.6884 14.0515 87.1583 14.3756 88.2735 15.0215C89.3888 15.6693 90.1753 16.5835 90.6388 17.7654C91.1001 18.9476 91.3317 20.3204 91.3317 21.8805V24.1558H85.9279V21.6125C85.9279 20.9877 85.8948 20.4034 85.8268 19.8557C85.7584 19.31 85.5736 18.8627 85.27 18.5176C84.9664 18.1725 84.4426 17.9987 83.699 17.9987C82.9554 17.9987 82.4163 18.1783 82.0773 18.5348C81.7407 18.8916 81.5248 19.3543 81.4352 19.9234C81.3455 20.4922 81.3007 21.1228 81.3007 21.8131V34.1273C81.3007 34.885 81.3632 35.5483 81.4859 36.1174C81.6102 36.6862 81.8457 37.122 82.1941 37.4228C82.5429 37.7235 83.0451 37.8739 83.6971 37.8739C84.4174 37.8739 84.9294 37.7005 85.235 37.3554C85.5386 37.0099 85.7293 36.5471 85.8091 35.9667C85.887 35.3863 85.9279 34.7731 85.9279 34.1273V31.4835H91.3317V33.7261C91.3317 35.3111 91.106 36.7092 90.6562 37.9261C90.2047 39.1426 89.4277 40.1012 88.3262 40.8032C87.2224 41.5048 85.6691 41.8577 83.664 41.8577L83.6621 41.8558Z" fill="#0C0E12"/>
<path d="M94.7422 41.4876V14.3853H100.315V25.8277L105.246 14.3853H110.65L105.515 26.5644L111.019 41.4876H105.413L101.191 29.341L100.313 30.88V41.4876H94.7402H94.7422Z" fill="#0C0E12"/>
<path d="M113.387 41.4876V14.3853H125.31V18.1994H118.96V25.3938H123.857V29.2409H118.96V37.7391H125.378V41.4857H113.387V41.4876Z" fill="#0C0E12"/>
<path d="M130.748 41.4876V18.5001H126.526V14.3853H140.511V18.5001H136.356V41.4876H130.748Z" fill="#0C0E12"/>
<path d="M150.069 41.8558C148.379 41.8558 146.971 41.5492 145.846 40.9361C144.719 40.3229 143.87 39.3974 143.296 38.1594C142.722 36.9214 142.389 34.488 142.299 32.5691L147.096 32.6213C147.141 33.7377 147.26 34.6672 147.45 35.4155C147.641 36.1634 147.935 36.7208 148.328 37.089C148.721 37.4575 149.212 37.6406 149.798 37.6406C150.518 37.6406 151.009 37.4169 151.268 36.9713C151.526 36.5261 151.657 36.0131 151.657 35.4326C151.657 34.2951 151.38 33.3404 150.83 32.5711C150.277 31.8017 149.551 31.0265 148.651 30.2455L145.813 27.8023C144.799 26.9558 143.972 25.9956 143.331 24.9252C142.689 23.8551 142.368 22.5381 142.368 20.976C142.368 18.7451 143.026 17.0327 144.343 15.8391C145.661 14.6456 147.468 14.0496 149.765 14.0496C151.137 14.0496 152.264 14.2732 153.142 14.7188C154.02 15.166 154.701 15.762 155.186 16.5083C155.671 17.2563 156.008 18.07 156.2 18.9515C156.391 19.8327 156.547 21.3425 156.592 22.212L151.791 22.2798C151.747 21.4544 151.673 20.7294 151.571 20.1046C151.47 19.4798 151.268 18.9901 150.964 18.6333C150.66 18.2765 150.205 18.0973 149.596 18.0973C148.942 18.0973 148.459 18.3364 148.143 18.8164C147.828 19.2967 147.67 19.8269 147.67 20.4053C147.67 21.3636 147.89 22.1505 148.328 22.7636C148.768 23.3768 149.37 24.0191 150.135 24.6883L152.905 27.0965C154.053 28.0781 155.038 29.2004 155.86 30.4597C156.681 31.7207 157.092 33.2769 157.092 35.128C157.092 36.3987 156.798 37.5482 156.214 38.5739C155.628 39.5999 154.812 40.4039 153.765 40.9824C152.718 41.5628 151.485 41.8519 150.067 41.8519L150.069 41.8558Z" fill="#0C0E12"/>
<path d="M167.049 41.8888C165.201 41.8888 163.739 41.5029 162.657 40.7335C161.577 39.9642 160.804 38.8707 160.343 37.4555C159.881 36.0383 159.65 34.3933 159.65 32.5208V23.4539C159.65 21.514 159.885 19.8405 160.358 18.4346C160.831 17.0288 161.658 15.947 162.84 15.1893C164.022 14.4313 165.628 14.0515 167.654 14.0515C169.68 14.0515 171.162 14.3756 172.299 15.0215C173.435 15.6693 174.251 16.5835 174.748 17.7654C175.242 18.9476 175.491 20.3531 175.491 21.9806V23.5543H170.052V21.6472C170.052 20.9336 170.008 20.3032 169.918 19.7575C169.828 19.2118 169.62 18.7817 169.293 18.4693C168.966 18.1569 168.443 18.0007 167.722 18.0007C167.002 18.0007 166.439 18.1896 166.101 18.5698C165.764 18.9496 165.548 19.4334 165.458 20.0255C165.369 20.6176 165.324 21.246 165.324 21.9152V33.9267C165.324 34.6844 165.392 35.3652 165.526 35.9687C165.661 36.5705 165.916 37.0391 166.286 37.3745C166.657 37.708 167.193 37.8758 167.89 37.8758C168.586 37.8758 169.128 37.6986 169.511 37.3398C169.895 36.983 170.157 36.4972 170.305 35.8841C170.451 35.2706 170.526 34.5745 170.526 33.7919V30.9147H167.857V27.569H175.557V41.4876H171.909L171.573 39.0444C171.213 39.8699 170.671 40.5504 169.951 41.0864C169.231 41.6225 168.261 41.8888 167.047 41.8888H167.049Z" fill="#E43E59"/>
<path d="M187.011 41.8558C185.006 41.8558 183.42 41.4993 182.248 40.7857C181.076 40.0721 180.239 39.0522 179.731 37.7235C179.225 36.3968 178.972 34.8078 178.972 32.9548V22.8505C178.972 20.9994 179.225 19.4162 179.731 18.0992C180.237 16.7841 181.076 15.7795 182.248 15.0869C183.418 14.3967 185.006 14.0496 187.011 14.0496C189.016 14.0496 190.642 14.4006 191.825 15.1044C193.007 15.8064 193.851 16.811 194.358 18.1164C194.864 19.4221 195.117 20.9994 195.117 22.8505V32.9548C195.117 34.8059 194.864 36.3968 194.358 37.7235C193.851 39.0503 193.007 40.0721 191.825 40.7857C190.643 41.4993 189.039 41.8558 187.011 41.8558ZM187.011 37.8739C187.732 37.8739 188.261 37.7119 188.599 37.3881C188.936 37.064 189.162 36.6301 189.275 36.0824C189.388 35.5367 189.444 34.9507 189.444 34.3259V21.5104C189.444 20.8856 189.388 20.3052 189.275 19.7711C189.162 19.2348 188.936 18.8067 188.599 18.4829C188.261 18.1588 187.733 17.9968 187.011 17.9968C186.336 17.9968 185.829 18.1588 185.491 18.4829C185.152 18.8067 184.928 19.2348 184.815 19.7711C184.702 20.3071 184.646 20.8875 184.646 21.5104V34.3259C184.646 34.9507 184.697 35.5367 184.798 36.0824C184.899 36.6301 185.119 37.064 185.456 37.3881C185.793 37.7119 186.31 37.8739 187.009 37.8739H187.011Z" fill="#E43E59"/>
<mask id="mask1_144_6460" style="mask-type:luminance" maskUnits="userSpaceOnUse" x="2" y="2" width="48" height="48">
<path d="M2.34497 2.9037H49.58V49.6119H2.34497V2.9037Z" fill="white"/>
</mask>
<g mask="url(#mask1_144_6460)">
<mask id="mask2_144_6460" style="mask-type:luminance" maskUnits="userSpaceOnUse" x="-2" y="0" width="57" height="56">
<path d="M54.3111 48.4348L5.60361 55.5327L-1.53149 7.4842L47.1757 0.386003L54.3111 48.4348Z" fill="white"/>
</mask>
<g mask="url(#mask2_144_6460)">
<mask id="mask3_144_6460" style="mask-type:luminance" maskUnits="userSpaceOnUse" x="-2" y="0" width="57" height="56">
<path d="M54.3111 48.4348L5.60361 55.5327L-1.53149 7.4842L47.1757 0.386003L54.3111 48.4348Z" fill="white"/>
</mask>
<g mask="url(#mask3_144_6460)">
<path d="M44.195 14.0522C43.7701 13.6312 43.0814 13.6306 42.6545 14.0512C42.1821 14.5182 41.5854 14.8154 40.9281 14.9113C39.9506 15.0536 38.9907 14.7389 38.2939 14.0483C37.0933 12.8564 37.0946 10.9184 38.2978 9.72841C38.7235 9.30711 38.7241 8.62396 38.2985 8.20202L33.2817 3.22489C33.0288 2.97341 32.681 2.87165 32.3513 2.91961C32.1282 2.95234 31.9132 3.05346 31.7411 3.22359L2.71456 31.9336C2.28894 32.3546 2.28829 33.0381 2.71391 33.4597L7.73073 38.4372C7.93422 38.64 8.21164 38.7538 8.50018 38.7541C8.7884 38.7531 9.06713 38.6407 9.27127 38.4385C9.74335 37.9715 10.3404 37.674 10.9976 37.578C11.9752 37.4358 12.935 37.7504 13.6318 38.4414C14.2132 39.0189 14.5338 39.7863 14.5328 40.6016C14.5321 41.4177 14.2112 42.1844 13.6279 42.761C13.4234 42.9628 13.3086 43.2377 13.3083 43.5238C13.3083 43.81 13.4228 44.0845 13.6269 44.2873L18.6444 49.2648C19.0697 49.6861 19.7593 49.6867 20.1849 49.2658L49.2118 20.556C49.4163 20.3535 49.5315 20.0793 49.5315 19.7932C49.5311 19.507 49.417 19.2322 49.2125 19.0297L44.195 14.0522ZM26.5686 39.902L26.1832 39.5199C25.9935 39.331 25.7327 39.2548 25.4857 39.2908C25.3182 39.3154 25.1569 39.3912 25.028 39.5186C24.7084 39.8346 24.7081 40.3469 25.0271 40.6635L25.4124 41.0456L19.4168 46.9759L15.86 43.4473C16.4139 42.6093 16.7116 41.6293 16.7119 40.6039C16.7136 39.2117 16.1669 37.9021 15.1734 36.9166C14.0025 35.7545 12.3226 35.2035 10.681 35.443C9.9223 35.5535 9.21173 35.8206 8.58197 36.227L5.02554 32.6985L11.0215 26.7679L11.4066 27.15C11.7252 27.4663 12.2418 27.4663 12.5624 27.151C12.8817 26.835 12.8817 26.3223 12.5627 26.0063L12.178 25.6242L32.5099 5.51383L36.0673 9.04299C34.7385 11.0623 34.9662 13.801 36.7527 15.5734C37.9239 16.7355 39.6032 17.2865 41.2455 17.047C42.0038 16.9365 42.7143 16.6694 43.3441 16.2624L46.9009 19.7912L26.5686 39.902Z" fill="#E43E59"/>
</g>
</g>
</g>
<mask id="mask4_144_6460" style="mask-type:luminance" maskUnits="userSpaceOnUse" x="13" y="28" width="6" height="5">
<path d="M13.8187 28.4563H18.2575V32.8533H13.8187V28.4563Z" fill="white"/>
</mask>
<g mask="url(#mask4_144_6460)">
<mask id="mask5_144_6460" style="mask-type:luminance" maskUnits="userSpaceOnUse" x="-2" y="0" width="57" height="56">
<path d="M54.3109 48.4348L5.60337 55.5327L-1.53174 7.48417L47.1754 0.385977L54.3109 48.4348Z" fill="white"/>
</mask>
<g mask="url(#mask5_144_6460)">
<mask id="mask6_144_6460" style="mask-type:luminance" maskUnits="userSpaceOnUse" x="-2" y="0" width="57" height="56">
<path d="M54.3109 48.4348L5.60337 55.5327L-1.53174 7.48417L47.1754 0.385977L54.3109 48.4348Z" fill="white"/>
</mask>
<g mask="url(#mask6_144_6460)">
<path d="M15.287 28.7088C15.0969 28.5201 14.8362 28.444 14.5892 28.48C14.422 28.5043 14.2607 28.5804 14.1312 28.7081C13.8119 29.0241 13.8115 29.5364 14.1305 29.8527L16.855 32.5555C17.1733 32.8718 17.6902 32.8718 18.0105 32.5565C18.3298 32.2402 18.3301 31.7278 18.0111 31.4115L15.287 28.7088Z" fill="#E43E59"/>
</g>
</g>
</g>
<mask id="mask7_144_6460" style="mask-type:luminance" maskUnits="userSpaceOnUse" x="19" y="33" width="5" height="6">
<path d="M19.2625 33.8489H23.7012V38.2459H19.2625V33.8489Z" fill="white"/>
</mask>
<g mask="url(#mask7_144_6460)">
<mask id="mask8_144_6460" style="mask-type:luminance" maskUnits="userSpaceOnUse" x="-2" y="0" width="57" height="56">
<path d="M54.3109 48.4348L5.60337 55.5327L-1.53174 7.48417L47.1754 0.385971L54.3109 48.4348Z" fill="white"/>
</mask>
<g mask="url(#mask8_144_6460)">
<mask id="mask9_144_6460" style="mask-type:luminance" maskUnits="userSpaceOnUse" x="-2" y="0" width="57" height="56">
<path d="M54.3109 48.4348L5.60337 55.5327L-1.53174 7.48417L47.1754 0.385971L54.3109 48.4348Z" fill="white"/>
</mask>
<g mask="url(#mask9_144_6460)">
<path d="M20.735 34.1143C20.5449 33.9257 20.2842 33.8495 20.0375 33.8855C19.87 33.9098 19.7087 33.986 19.5792 34.1133C19.2599 34.4293 19.2595 34.942 19.5785 35.258L22.303 37.9607C22.6216 38.277 23.1379 38.2774 23.4585 37.9617C23.7778 37.6457 23.7781 37.1331 23.4591 36.8171L20.735 34.1143Z" fill="#E43E59"/>
</g>
</g>
</g>
<mask id="mask10_144_6460" style="mask-type:luminance" maskUnits="userSpaceOnUse" x="26" y="29" width="17" height="23">
<path d="M26.2137 29.6178H42.21V51.3541H26.2137V29.6178Z" fill="white"/>
</mask>
<g mask="url(#mask10_144_6460)">
<mask id="mask11_144_6460" style="mask-type:luminance" maskUnits="userSpaceOnUse" x="-2" y="0" width="57" height="56">
<path d="M54.3109 48.4348L5.60337 55.5327L-1.53174 7.48417L47.1754 0.385973L54.3109 48.4348Z" fill="white"/>
</mask>
<g mask="url(#mask11_144_6460)">
<mask id="mask12_144_6460" style="mask-type:luminance" maskUnits="userSpaceOnUse" x="-2" y="0" width="57" height="56">
<path d="M54.3109 48.4348L5.60337 55.5327L-1.53174 7.48417L47.1754 0.385973L54.3109 48.4348Z" fill="white"/>
</mask>
<g mask="url(#mask12_144_6460)">
<path d="M41.4601 29.7448C41.2887 29.6858 41.1124 29.6716 40.9445 29.6962C40.5556 29.7529 40.2107 30.0167 40.073 30.4101L36.9193 39.3944L36.5307 39.2606C36.4018 39.2162 36.2702 39.2055 36.144 39.224C35.8525 39.2664 35.594 39.4644 35.4903 39.7593C35.3425 40.1816 35.5679 40.6431 35.9938 40.7899L36.3825 40.9234L33.5997 48.8509L28.8453 47.2134C28.9755 46.211 28.8077 45.1921 28.348 44.2627C28.083 43.728 27.4307 43.5063 26.8899 43.7688C26.3495 44.0313 26.1267 44.6778 26.391 45.2132C26.7564 45.9508 26.8075 46.7846 26.5353 47.5605C26.3377 48.1237 26.638 48.7388 27.2066 48.9345L33.9131 51.2445C34.1863 51.3388 34.487 51.3217 34.7454 51.1966C35.0058 51.0715 35.2054 50.8498 35.3002 50.5795L42.1311 31.1189C42.329 30.5556 42.0284 29.9406 41.4601 29.7448Z" fill="#E43E59"/>
</g>
</g>
</g>
<mask id="mask13_144_6460" style="mask-type:luminance" maskUnits="userSpaceOnUse" x="38" y="8" width="11" height="8">
<path d="M38.0225 8.37926H48.91V15.2652H38.0225V8.37926Z" fill="white"/>
</mask>
<g mask="url(#mask13_144_6460)">
<mask id="mask14_144_6460" style="mask-type:luminance" maskUnits="userSpaceOnUse" x="-2" y="0" width="57" height="56">
<path d="M54.3109 48.4348L5.60337 55.5327L-1.53174 7.48416L47.1754 0.38597L54.3109 48.4348Z" fill="white"/>
</mask>
<g mask="url(#mask14_144_6460)">
<mask id="mask15_144_6460" style="mask-type:luminance" maskUnits="userSpaceOnUse" x="-2" y="0" width="57" height="56">
<path d="M54.3109 48.4348L5.60337 55.5327L-1.53174 7.48416L47.1754 0.38597L54.3109 48.4348Z" fill="white"/>
</mask>
<g mask="url(#mask15_144_6460)">
<path d="M48.1006 10.8267L41.394 8.51667C41.2269 8.45898 41.0499 8.44343 40.8775 8.46838C40.7685 8.48426 40.6619 8.51667 40.5611 8.56495C40.301 8.68972 40.1018 8.91139 40.0069 9.18199C39.7616 9.88199 39.2685 10.4686 38.6182 10.8338C38.0951 11.1277 37.9115 11.7866 38.2086 12.3051C38.5056 12.8243 39.1714 13.0054 39.6938 12.7112C40.4829 12.2678 41.1372 11.6326 41.5998 10.873L46.3556 12.5112L45.9103 13.7809C45.7127 14.3438 46.013 14.9593 46.5816 15.1544C47.1502 15.3491 47.7708 15.0516 47.9684 14.4894L48.7719 12.2007C48.8668 11.9305 48.8497 11.6336 48.7238 11.376C48.5978 11.1183 48.3737 10.9206 48.1006 10.8267Z" fill="#E43E59"/>
</g>
</g>
</g>
<mask id="mask16_144_6460" style="mask-type:luminance" maskUnits="userSpaceOnUse" x="24" y="3" width="6" height="6">
<path d="M24.2875 3.40148H29.145V8.62815H24.2875V3.40148Z" fill="white"/>
</mask>
<g mask="url(#mask16_144_6460)">
<mask id="mask17_144_6460" style="mask-type:luminance" maskUnits="userSpaceOnUse" x="-2" y="0" width="57" height="56">
<path d="M54.3109 48.4348L5.60337 55.5327L-1.53174 7.48417L47.1754 0.385971L54.3109 48.4348Z" fill="white"/>
</mask>
<g mask="url(#mask17_144_6460)">
<mask id="mask18_144_6460" style="mask-type:luminance" maskUnits="userSpaceOnUse" x="-2" y="0" width="57" height="56">
<path d="M54.3109 48.4348L5.60337 55.5327L-1.53174 7.48417L47.1754 0.385971L54.3109 48.4348Z" fill="white"/>
</mask>
<g mask="url(#mask18_144_6460)">
<path d="M26.4104 7.9019L27.1183 5.88454L27.6732 6.07574C28.2424 6.27018 28.8627 5.97366 29.0603 5.41042C29.2579 4.8475 28.9572 4.23241 28.389 4.03667L26.8049 3.49125C26.6378 3.43356 26.4608 3.41768 26.2884 3.44296C26.1794 3.45884 26.0731 3.49093 25.972 3.53921C25.7123 3.66398 25.5127 3.88597 25.4181 4.15657L24.352 7.1925C24.1544 7.75574 24.455 8.37083 25.0233 8.56657C25.5906 8.76264 26.2121 8.46449 26.4104 7.9019Z" fill="#E43E59"/>
</g>
</g>
</g>
<mask id="mask19_144_6460" style="mask-type:luminance" maskUnits="userSpaceOnUse" x="32" y="38" width="3" height="2">
<path d="M32.0763 38.08H34.505V39.9881H32.0763V38.08Z" fill="white"/>
</mask>
<g mask="url(#mask19_144_6460)">
<mask id="mask20_144_6460" style="mask-type:luminance" maskUnits="userSpaceOnUse" x="-2" y="0" width="57" height="56">
<path d="M54.311 48.4348L5.60349 55.5327L-1.53162 7.48417L47.1756 0.385971L54.311 48.4348Z" fill="white"/>
</mask>
<g mask="url(#mask20_144_6460)">
<mask id="mask21_144_6460" style="mask-type:luminance" maskUnits="userSpaceOnUse" x="-2" y="0" width="57" height="56">
<path d="M54.311 48.4348L5.60349 55.5327L-1.53162 7.48417L47.1756 0.385971L54.311 48.4348Z" fill="white"/>
</mask>
<g mask="url(#mask21_144_6460)">
<path d="M33.3577 39.8815C33.7843 40.0277 34.2489 39.8044 34.3978 39.3818C34.5453 38.9592 34.3196 38.4981 33.893 38.3519L33.2446 38.1286C33.116 38.0842 32.9838 38.0732 32.8575 38.0917C32.566 38.1341 32.3076 38.3318 32.2039 38.6267C32.056 39.049 32.2808 39.5105 32.707 39.6573L33.3577 39.8815Z" fill="#E43E59"/>
</g>
</g>
</g>
<path d="M20.5464 26.7686L17.6963 27.6696C17.6544 27.5918 17.5991 27.4822 17.5301 27.3403C17.4604 27.1987 17.3835 26.9106 17.2998 26.4757C17.216 26.0411 17.1921 25.6078 17.2278 25.1755C17.2638 24.7435 17.428 24.2272 17.7211 23.6264C18.0143 23.0259 18.4458 22.4559 19.0153 21.9166C20.0491 20.9392 21.1837 20.4265 22.419 20.3779C23.6543 20.3296 24.7116 20.7616 25.591 21.6742C26.4109 22.5255 26.74 23.5013 26.5777 24.6012C28.0329 24.2869 29.2829 24.6722 30.3281 25.7575C31.3155 26.7826 31.7506 27.9855 31.6328 29.3664C31.515 30.7476 30.8728 31.9895 29.7066 33.092C29.0843 33.6805 28.431 34.1245 27.7463 34.4233C27.0622 34.7224 26.454 34.8789 25.9221 34.8925C25.3908 34.9055 24.906 34.8711 24.4669 34.7888C24.0273 34.7059 23.6841 34.6067 23.4371 34.4907L23.0824 34.304L24.3034 31.0321C24.3462 31.0762 24.4094 31.129 24.4931 31.1903C24.5769 31.2519 24.7503 31.3407 25.0126 31.4573C25.275 31.574 25.5325 31.6502 25.7847 31.6855C26.0376 31.7211 26.3369 31.6878 26.6824 31.5857C27.0279 31.4829 27.3537 31.2862 27.6599 30.9959C28.1248 30.5571 28.3803 30.0748 28.4267 29.5492C28.4739 29.0239 28.2835 28.5394 27.8562 28.096C27.4129 27.6355 26.8977 27.4006 26.3108 27.3909C25.7245 27.3815 25.2122 27.584 24.7732 27.9988L24.3766 28.5251L22.8325 26.9216L23.3716 26.4121C23.7129 26.089 23.8895 25.6729 23.9016 25.1638C23.9141 24.654 23.7361 24.2081 23.3677 23.826C23.0416 23.4874 22.6359 23.3318 22.1507 23.3594C21.6659 23.3863 21.2432 23.57 20.8827 23.9103C20.6288 24.1508 20.443 24.4139 20.3252 24.6997C20.2068 24.9849 20.1558 25.2448 20.1721 25.4788C20.1878 25.7121 20.2215 25.9296 20.2729 26.1309C20.3236 26.3315 20.3822 26.4834 20.4482 26.5871L20.5464 26.7686Z" fill="#0C0E12"/>
<path d="M28.6347 19.1215L25.7845 20.0224C25.7427 19.9446 25.6874 19.8351 25.6183 19.6931C25.5487 19.5515 25.4718 19.2634 25.388 18.8285C25.3043 18.3939 25.2804 17.9606 25.3161 17.5283C25.352 17.0963 25.5163 16.5801 25.8094 15.9792C26.1025 15.3787 26.534 14.8087 27.1036 14.2694C28.1374 13.292 29.2719 12.7793 30.5072 12.7307C31.7426 12.6824 32.7999 13.1144 33.6793 14.027C34.4991 14.8784 34.8282 15.8542 34.666 16.9541C36.1211 16.6397 37.3712 17.025 38.4164 18.1104C39.4037 19.1354 39.8388 20.3384 39.7211 21.7192C39.6033 23.1005 38.9611 24.3423 37.7948 25.4448C37.1726 26.0333 36.5193 26.4773 35.8345 26.7761C35.1505 27.0752 34.5423 27.2317 34.0104 27.2454C33.4791 27.2583 32.9942 27.224 32.5552 27.1417C32.1155 27.0587 31.7723 26.9595 31.5253 26.8435L31.1707 26.6568L32.3916 23.385C32.4345 23.4291 32.4976 23.4819 32.5814 23.5431C32.6651 23.6047 32.8385 23.6935 33.1009 23.8102C33.3633 23.9268 33.6207 24.003 33.873 24.0383C34.1258 24.074 34.4252 24.0406 34.7706 23.9385C35.1161 23.8358 35.442 23.6391 35.7482 23.3487C36.213 22.9099 36.4685 22.4277 36.515 21.902C36.5621 21.3767 36.3717 20.8922 35.9445 20.4489C35.5012 19.9884 34.9859 19.7534 34.399 19.7437C33.8128 19.7343 33.3004 19.9368 32.8614 20.3517L32.4649 20.878L30.9208 19.2744L31.4599 18.765C31.8011 18.4419 31.9778 18.0258 31.9899 17.5167C32.0023 17.0069 31.8243 16.561 31.456 16.1789C31.1298 15.8402 30.7241 15.6847 30.239 15.7122C29.7542 15.7391 29.3315 15.9229 28.971 16.2631C28.7171 16.5036 28.5313 16.7667 28.4135 17.0526C28.2951 17.3378 28.244 17.5977 28.2604 17.8317C28.2761 18.065 28.3098 18.2824 28.3612 18.4837C28.4119 18.6843 28.4704 18.8363 28.5365 18.94L28.6347 19.1215Z" fill="#0C0E12"/>
</svg>
