<svg width="24" height="24" viewBox="0 0 24 24" fill="none" xmlns="http://www.w3.org/2000/svg">
<g id="mail">
<mask id="mask0_244_6882" style="mask-type:alpha" maskUnits="userSpaceOnUse" x="0" y="0" width="24" height="24">
<rect id="Bounding box" width="24" height="24" fill="#D9D9D9"/>
</mask>
<g mask="url(#mask0_244_6882)">
<path id="mail_2" d="M3.99609 20.0007C3.44609 20.0007 2.97526 19.8049 2.58359 19.4132C2.19193 19.0216 1.99609 18.5507 1.99609 18.0007V6.00073C1.99609 5.45073 2.19193 4.9799 2.58359 4.58823C2.97526 4.19657 3.44609 4.00073 3.99609 4.00073H19.9961C20.5461 4.00073 21.0169 4.19657 21.4086 4.58823C21.8003 4.9799 21.9961 5.45073 21.9961 6.00073V18.0007C21.9961 18.5507 21.8003 19.0216 21.4086 19.4132C21.0169 19.8049 20.5461 20.0007 19.9961 20.0007H3.99609ZM19.9961 8.00073L12.5211 12.6757C12.4378 12.7257 12.3503 12.7632 12.2586 12.7882C12.1669 12.8132 12.0794 12.8257 11.9961 12.8257C11.9128 12.8257 11.8253 12.8132 11.7336 12.7882C11.6419 12.7632 11.5544 12.7257 11.4711 12.6757L3.99609 8.00073V18.0007H19.9961V8.00073ZM11.9961 11.0007L19.9961 6.00073H3.99609L11.9961 11.0007ZM3.99609 8.25073V6.77573V6.80073V6.78823V8.25073Z" fill="#E43E59"/>
</g>
</g>
</svg>
