<svg width="20" height="20" viewBox="0 0 20 20" fill="none" xmlns="http://www.w3.org/2000/svg">
<g id="mail">
<mask id="mask0_205_1630" style="mask-type:alpha" maskUnits="userSpaceOnUse" x="0" y="0" width="20" height="20">
<rect id="Bounding box" width="20" height="20" fill="#D9D9D9"/>
</mask>
<g mask="url(#mask0_205_1630)">
<path id="mail_2" d="M3.33097 16.6673C2.87264 16.6673 2.48028 16.5041 2.15389 16.1777C1.8275 15.8513 1.66431 15.459 1.66431 15.0006V5.00065C1.66431 4.54232 1.8275 4.14996 2.15389 3.82357C2.48028 3.49718 2.87264 3.33398 3.33097 3.33398H16.6643C17.1226 3.33398 17.515 3.49718 17.8414 3.82357C18.1678 4.14996 18.331 4.54232 18.331 5.00065V15.0006C18.331 15.459 18.1678 15.8513 17.8414 16.1777C17.515 16.5041 17.1226 16.6673 16.6643 16.6673H3.33097ZM16.6643 6.66732L10.4351 10.5631C10.3657 10.6048 10.2928 10.6361 10.2164 10.6569C10.14 10.6777 10.0671 10.6881 9.99764 10.6881C9.92819 10.6881 9.85528 10.6777 9.77889 10.6569C9.7025 10.6361 9.62958 10.6048 9.56014 10.5631L3.33097 6.66732V15.0006H16.6643V6.66732ZM9.99764 9.16732L16.6643 5.00065H3.33097L9.99764 9.16732ZM3.33097 6.87565V5.64648V5.66732V5.6569V6.87565Z" fill="#0C0E12"/>
</g>
</g>
</svg>
