<svg xmlns="http://www.w3.org/2000/svg" width="25" height="24" viewBox="0 0 25 24" fill="none">
    <mask id="mask0_244_5049" style="mask-type:alpha" maskUnits="userSpaceOnUse" x="0" y="0" width="25" height="24">
        <rect x="0.5" width="24" height="24" fill="#D9D9D9"/>
    </mask>
    <g mask="url(#mask0_244_5049)">
        <path d="M6.49902 13C6.21569 13 5.97819 12.9042 5.78652 12.7125C5.59486 12.5208 5.49902 12.2833 5.49902 12C5.49902 11.7167 5.59486 11.4792 5.78652 11.2875C5.97819 11.0958 6.21569 11 6.49902 11H18.499C18.7824 11 19.0199 11.0958 19.2115 11.2875C19.4032 11.4792 19.499 11.7167 19.499 12C19.499 12.2833 19.4032 12.5208 19.2115 12.7125C19.0199 12.9042 18.7824 13 18.499 13H6.49902Z" fill="#E43E59" />
    </g>
</svg>