<svg width="40" height="32" viewBox="0 0 40 32" fill="none" xmlns="http://www.w3.org/2000/svg">
<g id="paypal-seeklogo 1" clip-path="url(#clip0_244_5157)">
<g id="Group 4">
<path id="Vector" fill-rule="evenodd" clip-rule="evenodd" d="M13.9238 7.53223H22.9495C27.7955 7.53223 29.6197 9.98552 29.3378 13.5897C28.8718 19.5401 25.2746 22.8321 20.5032 22.8321H18.0941C17.4395 22.8321 16.9991 23.2655 16.822 24.4397L15.7993 31.266C15.7317 31.7087 15.4987 31.965 15.1492 31.9999H9.47847C8.94495 31.9999 8.75623 31.5922 8.89602 30.7092L12.3535 8.82528C12.4886 7.94927 12.9685 7.53223 13.9238 7.53223Z" fill="#009EE3"/>
<path id="Vector_2" fill-rule="evenodd" clip-rule="evenodd" d="M8.28045 0H17.3155C19.8596 0 22.8791 0.0815435 24.8967 1.86385C26.2456 3.05439 26.9539 4.94853 26.7908 6.98944C26.2363 13.888 22.1102 17.7532 16.5746 17.7532H12.12C11.3605 17.7532 10.8596 18.2564 10.6452 19.617L9.40109 27.5384C9.31955 28.051 9.09821 28.3538 8.70214 28.3911H3.1269C2.5095 28.3911 2.2905 27.9252 2.45125 26.8954L6.45853 1.50506C6.61929 0.484599 7.18078 0 8.28045 0Z" fill="#113984"/>
<path id="Vector_3" fill-rule="evenodd" clip-rule="evenodd" d="M10.7754 18.8131L12.3527 8.82517C12.4901 7.94916 12.9701 7.52979 13.9253 7.52979H22.951C24.4444 7.52979 25.6536 7.76277 26.5995 8.19378C25.6932 14.3352 21.7209 17.746 16.5207 17.746H12.0731C11.4767 17.7484 11.0387 18.0466 10.7754 18.8131Z" fill="#172C70"/>
</g>
</g>
<defs>
<clipPath id="clip0_244_5157">
<rect width="40" height="32" fill="white"/>
</clipPath>
</defs>
</svg>
