<svg xmlns="http://www.w3.org/2000/svg" width="25" height="24" viewBox="0 0 25 24" fill="none">
    <mask id="mask0_244_5055" style="mask-type:alpha" maskUnits="userSpaceOnUse" x="0" y="0" width="25" height="24">
        <rect x="0.5" width="24" height="24" fill="#D9D9D9"/>
    </mask>
    <g mask="url(#mask0_244_5055)">
        <path d="M11.501 13H6.50098C6.21764 13 5.98014 12.9042 5.78848 12.7125C5.59681 12.5208 5.50098 12.2833 5.50098 12C5.50098 11.7167 5.59681 11.4792 5.78848 11.2875C5.98014 11.0958 6.21764 11 6.50098 11H11.501V6C11.501 5.71667 11.5968 5.47917 11.7885 5.2875C11.9801 5.09583 12.2176 5 12.501 5C12.7843 5 13.0218 5.09583 13.2135 5.2875C13.4051 5.47917 13.501 5.71667 13.501 6V11H18.501C18.7843 11 19.0218 11.0958 19.2135 11.2875C19.4051 11.4792 19.501 11.7167 19.501 12C19.501 12.2833 19.4051 12.5208 19.2135 12.7125C19.0218 12.9042 18.7843 13 18.501 13H13.501V18C13.501 18.2833 13.4051 18.5208 13.2135 18.7125C13.0218 18.9042 12.7843 19 12.501 19C12.2176 19 11.9801 18.9042 11.7885 18.7125C11.5968 18.5208 11.501 18.2833 11.501 18V13Z" fill="#E43E59"/>
    </g>
</svg>