<svg width="56" height="56" viewBox="0 0 56 56" fill="none" xmlns="http://www.w3.org/2000/svg">
<g id="fi_2961957" clip-path="url(#clip0_244_6102)">
<path id="Vector" fill-rule="evenodd" clip-rule="evenodd" d="M33.3754 4.84074C35.407 3.95887 37.5977 3.50258 39.8125 3.5C44.1043 3.50463 48.2189 5.21158 51.2537 8.24633C54.2884 11.2811 55.9954 15.3957 56 19.6875C56 34.4406 34.2187 48.9445 29.7057 51.7708L35.4638 31.5L25.9638 30L33.5 15L27.5725 13L31 6C32 5.5 32.1714 5.36336 33.3754 4.84074ZM26.832 7.5C24.8088 5.73401 22.3707 4.49328 19.7338 3.90121C16.5669 3.19013 13.2594 3.44751 10.2406 4.63994C7.22177 5.83236 4.63115 7.90475 2.80502 10.5881C0.978897 13.2714 0.00159801 16.4417 0 19.6875C0 32.4355 17.1417 45.9974 24.5 51L30 33.5L20 32L28.9275 16.5L23 14.5L26.832 7.5Z" fill="white"/>
</g>
<defs>
<clipPath id="clip0_244_6102">
<rect width="56" height="56" fill="white"/>
</clipPath>
</defs>
</svg>
